<svg xmlns="http://www.w3.org/2000/svg" viewBox="0 0 256 256" width="256" height="256">
  <rect width="256" height="256" rx="48" fill="#1a1a2e"/>

  <!-- 外焰（琥珀） -->
  <path d="M 70 128
           C 70 80, 120 56, 180 96
           C 220 120, 236 128, 236 128
           C 236 128, 220 136, 180 160
           C 120 200, 70 176, 70 128 Z"
        fill="#f5a623" opacity="0.5"/>

  <!-- 中焰（绿） -->
  <path d="M 73 128
           C 73 92, 120 72, 172 104
           C 206 124, 220 128, 220 128
           C 220 128, 206 132, 172 152
           C 120 184, 73 164, 73 128 Z"
        fill="#06d6a0" opacity="0.7"/>

  <!-- 焰心（最亮绿） -->
  <path d="M 76 128
           C 76 104, 120 88, 164 112
           C 192 128, 204 128, 204 128
           C 204 128, 192 128, 164 144
           C 120 168, 76 152, 76 128 Z"
        fill="#06d6a0"/>
</svg>
